<mxfile host="app.diagrams.net" agent="Mozilla/5.0 (Macintosh; Intel Mac OS X 10_15_7) AppleWebKit/537.36 (KHTML, like Gecko) Chrome/131.0.0.0 Safari/537.36" version="26.0.6">
  <diagram name="第 1 页" id="UhGYSRa2YgAMnk5_34X9">
    <mxGraphModel dx="954" dy="581" grid="1" gridSize="10" guides="1" tooltips="1" connect="1" arrows="1" fold="1" page="1" pageScale="1" pageWidth="827" pageHeight="1169" math="0" shadow="0">
      <root>
        <mxCell id="0" />
        <mxCell id="1" parent="0" />
        <mxCell id="eUmpF66XLGPswrJBCya0-1" style="edgeStyle=orthogonalEdgeStyle;rounded=0;orthogonalLoop=1;jettySize=auto;html=1;entryX=0;entryY=0.5;entryDx=0;entryDy=0;strokeColor=default;curved=1;" edge="1" parent="1" source="eUmpF66XLGPswrJBCya0-5" target="eUmpF66XLGPswrJBCya0-6">
          <mxGeometry relative="1" as="geometry" />
        </mxCell>
        <mxCell id="eUmpF66XLGPswrJBCya0-2" value="写" style="edgeLabel;html=1;align=center;verticalAlign=middle;resizable=0;points=[];" vertex="1" connectable="0" parent="eUmpF66XLGPswrJBCya0-1">
          <mxGeometry x="-0.0952" y="3" relative="1" as="geometry">
            <mxPoint as="offset" />
          </mxGeometry>
        </mxCell>
        <mxCell id="eUmpF66XLGPswrJBCya0-3" style="edgeStyle=orthogonalEdgeStyle;rounded=0;orthogonalLoop=1;jettySize=auto;html=1;entryX=0;entryY=0.5;entryDx=0;entryDy=0;" edge="1" parent="1" source="eUmpF66XLGPswrJBCya0-5" target="eUmpF66XLGPswrJBCya0-13">
          <mxGeometry relative="1" as="geometry" />
        </mxCell>
        <mxCell id="eUmpF66XLGPswrJBCya0-4" value="同步删除缓存" style="edgeLabel;html=1;align=center;verticalAlign=middle;resizable=0;points=[];" vertex="1" connectable="0" parent="eUmpF66XLGPswrJBCya0-3">
          <mxGeometry x="-0.0058" y="-1" relative="1" as="geometry">
            <mxPoint x="9" y="-1" as="offset" />
          </mxGeometry>
        </mxCell>
        <mxCell id="eUmpF66XLGPswrJBCya0-5" value="App" style="ellipse;shape=cloud;whiteSpace=wrap;html=1;" vertex="1" parent="1">
          <mxGeometry x="43" y="240" width="120" height="80" as="geometry" />
        </mxCell>
        <mxCell id="eUmpF66XLGPswrJBCya0-6" value="MySQL" style="rounded=1;whiteSpace=wrap;html=1;" vertex="1" parent="1">
          <mxGeometry x="365" y="150" width="120" height="60" as="geometry" />
        </mxCell>
        <mxCell id="eUmpF66XLGPswrJBCya0-7" style="edgeStyle=orthogonalEdgeStyle;rounded=0;orthogonalLoop=1;jettySize=auto;html=1;entryX=0;entryY=0.5;entryDx=0;entryDy=0;curved=1;" edge="1" parent="1" source="eUmpF66XLGPswrJBCya0-11" target="eUmpF66XLGPswrJBCya0-13">
          <mxGeometry relative="1" as="geometry">
            <mxPoint x="360" y="280" as="targetPoint" />
            <Array as="points">
              <mxPoint x="270" y="500" />
              <mxPoint x="270" y="280" />
            </Array>
          </mxGeometry>
        </mxCell>
        <mxCell id="eUmpF66XLGPswrJBCya0-8" value="异步删除缓存" style="edgeLabel;html=1;align=center;verticalAlign=middle;resizable=0;points=[];" vertex="1" connectable="0" parent="eUmpF66XLGPswrJBCya0-7">
          <mxGeometry x="-0.2864" relative="1" as="geometry">
            <mxPoint x="10" y="-71" as="offset" />
          </mxGeometry>
        </mxCell>
        <mxCell id="eUmpF66XLGPswrJBCya0-9" style="edgeStyle=orthogonalEdgeStyle;rounded=0;orthogonalLoop=1;jettySize=auto;html=1;entryX=0.5;entryY=1;entryDx=0;entryDy=0;" edge="1" parent="1" source="eUmpF66XLGPswrJBCya0-11" target="eUmpF66XLGPswrJBCya0-19">
          <mxGeometry relative="1" as="geometry" />
        </mxCell>
        <mxCell id="eUmpF66XLGPswrJBCya0-10" value="重试次数超限" style="edgeLabel;html=1;align=center;verticalAlign=middle;resizable=0;points=[];" vertex="1" connectable="0" parent="eUmpF66XLGPswrJBCya0-9">
          <mxGeometry x="-0.6769" y="1" relative="1" as="geometry">
            <mxPoint x="24" as="offset" />
          </mxGeometry>
        </mxCell>
        <mxCell id="eUmpF66XLGPswrJBCya0-11" value="落 MQ" style="rounded=1;whiteSpace=wrap;html=1;" vertex="1" parent="1">
          <mxGeometry x="365" y="470" width="120" height="60" as="geometry" />
        </mxCell>
        <mxCell id="eUmpF66XLGPswrJBCya0-12" style="edgeStyle=orthogonalEdgeStyle;rounded=0;orthogonalLoop=1;jettySize=auto;html=1;exitX=0.5;exitY=1;exitDx=0;exitDy=0;entryX=0.5;entryY=0;entryDx=0;entryDy=0;" edge="1" parent="1" source="eUmpF66XLGPswrJBCya0-13" target="eUmpF66XLGPswrJBCya0-18">
          <mxGeometry relative="1" as="geometry" />
        </mxCell>
        <mxCell id="eUmpF66XLGPswrJBCya0-13" value="Redis" style="rounded=1;whiteSpace=wrap;html=1;" vertex="1" parent="1">
          <mxGeometry x="365" y="250" width="120" height="60" as="geometry" />
        </mxCell>
        <mxCell id="eUmpF66XLGPswrJBCya0-14" style="edgeStyle=orthogonalEdgeStyle;rounded=0;orthogonalLoop=1;jettySize=auto;html=1;entryX=0.5;entryY=0;entryDx=0;entryDy=0;" edge="1" parent="1" source="eUmpF66XLGPswrJBCya0-18" target="eUmpF66XLGPswrJBCya0-11">
          <mxGeometry relative="1" as="geometry" />
        </mxCell>
        <mxCell id="eUmpF66XLGPswrJBCya0-15" value="否" style="edgeLabel;html=1;align=center;verticalAlign=middle;resizable=0;points=[];" vertex="1" connectable="0" parent="eUmpF66XLGPswrJBCya0-14">
          <mxGeometry x="-0.12" y="1" relative="1" as="geometry">
            <mxPoint x="-2" as="offset" />
          </mxGeometry>
        </mxCell>
        <mxCell id="eUmpF66XLGPswrJBCya0-16" style="edgeStyle=orthogonalEdgeStyle;rounded=0;orthogonalLoop=1;jettySize=auto;html=1;entryX=0.5;entryY=1;entryDx=0;entryDy=0;" edge="1" parent="1" source="eUmpF66XLGPswrJBCya0-18" target="eUmpF66XLGPswrJBCya0-19">
          <mxGeometry relative="1" as="geometry">
            <mxPoint x="709" y="280" as="targetPoint" />
          </mxGeometry>
        </mxCell>
        <mxCell id="eUmpF66XLGPswrJBCya0-17" value="是" style="edgeLabel;html=1;align=center;verticalAlign=middle;resizable=0;points=[];" vertex="1" connectable="0" parent="eUmpF66XLGPswrJBCya0-16">
          <mxGeometry x="-0.3942" y="-2" relative="1" as="geometry">
            <mxPoint x="1" y="-3" as="offset" />
          </mxGeometry>
        </mxCell>
        <mxCell id="eUmpF66XLGPswrJBCya0-18" value="删除成功" style="rhombus;whiteSpace=wrap;html=1;" vertex="1" parent="1">
          <mxGeometry x="365" y="360" width="120" height="40" as="geometry" />
        </mxCell>
        <mxCell id="eUmpF66XLGPswrJBCya0-19" value="结束" style="rounded=1;whiteSpace=wrap;html=1;" vertex="1" parent="1">
          <mxGeometry x="637" y="250" width="120" height="60" as="geometry" />
        </mxCell>
      </root>
    </mxGraphModel>
  </diagram>
</mxfile>
